<svg width="1181" height="1249" viewBox="0 0 1181 1249" fill="none" xmlns="http://www.w3.org/2000/svg">
<mask id="mask0_1011_520" style="mask-type:alpha" maskUnits="userSpaceOnUse" x="0" y="0" width="1180" height="1249">
<rect x="-0.389567" y="0.761572" width="908.873" height="1016.09" transform="matrix(-0.9517 0.30703 0.307978 0.951393 865.628 1.02104)" fill="url(#paint0_linear_1011_520)" stroke="url(#paint1_linear_1011_520)" stroke-width="1.21036"/>
</mask>
<g mask="url(#mask0_1011_520)">
<path d="M206.845 950.537C255.82 1232.15 492.788 1372.13 736.082 1263.16C761.599 1251.74 786.262 1237.98 809.797 1222.26C595.068 1274.06 400.669 1135.5 356.821 883.368C312.973 631.238 434.583 351.261 634.975 217.021C609.769 223.131 584.232 231.862 558.715 243.29C315.421 352.254 157.87 668.925 206.845 950.537Z" fill="url(#paint2_linear_1011_520)" stroke="url(#paint3_linear_1011_520)" stroke-width="1.89058" stroke-miterlimit="10"/>
<g filter="url(#filter0_f_1011_520)">
<path d="M223.509 943.074C272.484 1224.69 492.788 1372.13 736.082 1263.16C761.599 1251.74 786.262 1237.98 809.797 1222.26C595.068 1274.06 384.005 1142.96 340.157 890.831C296.309 638.701 434.583 351.261 634.975 217.021C609.769 223.131 584.232 231.862 558.715 243.29C315.421 352.254 174.534 661.462 223.509 943.074Z" fill="url(#paint4_linear_1011_520)"/>
<path d="M223.509 943.074C272.484 1224.69 492.788 1372.13 736.082 1263.16C761.599 1251.74 786.262 1237.98 809.797 1222.26C595.068 1274.06 384.005 1142.96 340.157 890.831C296.309 638.701 434.583 351.261 634.975 217.021C609.769 223.131 584.232 231.862 558.715 243.29C315.421 352.254 174.534 661.462 223.509 943.074Z" stroke="url(#paint5_linear_1011_520)" stroke-width="1.89058" stroke-miterlimit="10"/>
</g>
<g filter="url(#filter1_f_1011_520)">
<path d="M231.841 939.342C280.816 1220.95 510.971 1373.4 754.265 1264.44C779.782 1253.01 804.445 1239.25 827.981 1223.53C613.251 1275.33 375.673 1146.69 331.825 894.562C287.977 642.433 456.645 342.557 657.037 208.317C631.83 214.428 606.294 223.158 580.777 234.586C337.483 343.55 182.866 657.73 231.841 939.342Z" fill="url(#paint6_linear_1011_520)"/>
<path d="M231.841 939.342C280.816 1220.95 510.971 1373.4 754.265 1264.44C779.782 1253.01 804.445 1239.25 827.981 1223.53C613.251 1275.33 375.673 1146.69 331.825 894.562C287.977 642.433 456.645 342.557 657.037 208.317C631.83 214.428 606.294 223.158 580.777 234.586C337.483 343.55 182.866 657.73 231.841 939.342Z" stroke="url(#paint7_linear_1011_520)" stroke-width="1.89058" stroke-miterlimit="10"/>
</g>
<g filter="url(#filter2_f_1011_520)">
<path d="M231.841 939.342C280.816 1220.95 510.971 1373.4 754.265 1264.44C779.782 1253.01 804.445 1239.25 827.981 1223.53C613.251 1275.33 375.673 1146.69 331.825 894.562C287.977 642.433 456.645 342.557 657.037 208.317C631.83 214.428 606.294 223.158 580.777 234.586C337.483 343.55 182.866 657.73 231.841 939.342Z" fill="url(#paint8_linear_1011_520)"/>
<path d="M231.841 939.342C280.816 1220.95 510.971 1373.4 754.265 1264.44C779.782 1253.01 804.445 1239.25 827.981 1223.53C613.251 1275.33 375.673 1146.69 331.825 894.562C287.977 642.433 456.645 342.557 657.037 208.317C631.83 214.428 606.294 223.158 580.777 234.586C337.483 343.55 182.866 657.73 231.841 939.342Z" stroke="url(#paint9_linear_1011_520)" stroke-width="1.89058" stroke-miterlimit="10"/>
</g>
<g filter="url(#filter3_f_1011_520)">
<path d="M231.841 939.342C280.816 1220.95 510.971 1373.4 754.265 1264.44C779.782 1253.01 804.445 1239.25 827.981 1223.53C613.251 1275.33 375.673 1146.69 331.825 894.562C287.977 642.433 456.645 342.557 657.037 208.317C631.83 214.428 606.294 223.158 580.777 234.586C337.483 343.55 182.866 657.73 231.841 939.342Z" fill="url(#paint10_linear_1011_520)"/>
<path d="M231.841 939.342C280.816 1220.95 510.971 1373.4 754.265 1264.44C779.782 1253.01 804.445 1239.25 827.981 1223.53C613.251 1275.33 375.673 1146.69 331.825 894.562C287.977 642.433 456.645 342.557 657.037 208.317C631.83 214.428 606.294 223.158 580.777 234.586C337.483 343.55 182.866 657.73 231.841 939.342Z" stroke="url(#paint11_linear_1011_520)" stroke-width="1.89058" stroke-miterlimit="10"/>
</g>
<g filter="url(#filter4_f_1011_520)">
<path d="M280.801 936.835C329.776 1218.45 510.971 1373.4 754.265 1264.44C779.782 1253.01 804.445 1239.25 827.981 1223.53C613.251 1275.33 349.832 1165.94 304.746 906.69C248.255 581.86 456.645 342.557 657.037 208.317C631.83 214.428 606.294 223.158 580.777 234.586C337.483 343.55 231.825 655.223 280.801 936.835Z" fill="url(#paint12_linear_1011_520)"/>
<path d="M280.801 936.835C329.776 1218.45 510.971 1373.4 754.265 1264.44C779.782 1253.01 804.445 1239.25 827.981 1223.53C613.251 1275.33 349.832 1165.94 304.746 906.69C248.255 581.86 456.645 342.557 657.037 208.317C631.83 214.428 606.294 223.158 580.777 234.586C337.483 343.55 231.825 655.223 280.801 936.835Z" stroke="url(#paint13_linear_1011_520)" stroke-width="1.89058" stroke-miterlimit="10"/>
</g>
<g filter="url(#filter5_f_1011_520)">
<path d="M280.8 936.835C329.775 1218.45 488.22 1426.55 731.513 1317.59C757.03 1306.16 830.652 1205.98 854.188 1190.26C639.458 1242.06 349.832 1165.94 304.746 906.69C248.254 581.86 486.019 359.767 686.411 225.527C690.836 250.97 631.789 166.425 606.272 177.853C362.979 286.817 231.825 655.223 280.8 936.835Z" fill="url(#paint14_linear_1011_520)"/>
<path d="M280.8 936.835C329.775 1218.45 488.22 1426.55 731.513 1317.59C757.03 1306.16 830.652 1205.98 854.188 1190.26C639.458 1242.06 349.832 1165.94 304.746 906.69C248.254 581.86 486.019 359.767 686.411 225.527C690.836 250.97 631.789 166.425 606.272 177.853C362.979 286.817 231.825 655.223 280.8 936.835Z" stroke="url(#paint15_linear_1011_520)" stroke-width="1.89058" stroke-miterlimit="10"/>
</g>
<g filter="url(#filter6_f_1011_520)">
<path d="M280.8 936.835C329.775 1218.45 488.22 1426.55 731.513 1317.59C757.03 1306.16 830.652 1205.98 854.188 1190.26C639.458 1242.06 349.832 1165.94 304.746 906.69C248.254 581.86 486.019 359.767 686.411 225.527C690.836 250.97 631.789 166.425 606.272 177.853C362.979 286.817 231.825 655.223 280.8 936.835Z" fill="url(#paint16_linear_1011_520)"/>
<path d="M280.8 936.835C329.775 1218.45 488.22 1426.55 731.513 1317.59C757.03 1306.16 830.652 1205.98 854.188 1190.26C639.458 1242.06 349.832 1165.94 304.746 906.69C248.254 581.86 486.019 359.767 686.411 225.527C690.836 250.97 631.789 166.425 606.272 177.853C362.979 286.817 231.825 655.223 280.8 936.835Z" stroke="url(#paint17_linear_1011_520)" stroke-width="1.89058" stroke-miterlimit="10"/>
</g>
<g filter="url(#filter7_f_1011_520)">
<path d="M280.8 936.835C329.775 1218.45 488.22 1426.55 731.513 1317.59C757.03 1306.16 830.652 1205.98 854.188 1190.26C639.458 1242.06 349.832 1165.94 304.746 906.69C248.254 581.86 486.019 359.767 686.411 225.527C690.836 250.97 631.789 166.425 606.272 177.853C362.979 286.817 231.825 655.223 280.8 936.835Z" fill="url(#paint18_linear_1011_520)"/>
<path d="M280.8 936.835C329.775 1218.45 488.22 1426.55 731.513 1317.59C757.03 1306.16 830.652 1205.98 854.188 1190.26C639.458 1242.06 349.832 1165.94 304.746 906.69C248.254 581.86 486.019 359.767 686.411 225.527C690.836 250.97 631.789 166.425 606.272 177.853C362.979 286.817 231.825 655.223 280.8 936.835Z" stroke="url(#paint19_linear_1011_520)" stroke-width="1.89058" stroke-miterlimit="10"/>
</g>
</g>
<g filter="url(#filter8_f_1011_520)">
<mask id="mask1_1011_520" style="mask-type:alpha" maskUnits="userSpaceOnUse" x="254" y="657" width="545" height="399">
<path opacity="0.8" d="M797.293 902.084L631.258 1054.71L389.575 971.774L255.173 658.266L449.722 691.606L503.02 690.086L779.144 859.749L797.293 902.084Z" fill="url(#paint20_linear_1011_520)" stroke="url(#paint21_linear_1011_520)" stroke-width="1.18963"/>
</mask>
<g mask="url(#mask1_1011_520)">
<g opacity="0.8">
<path d="M617.424 1210.17C629.541 1205.49 641.28 1199.62 652.855 1192.9C613.639 1210.54 573.483 1204.97 536.847 1186.05C494.179 1164.02 456.208 1123.87 429.906 1081.03C355.691 960.34 344.957 779.605 441.536 618.564C417.627 634.942 395.798 660.37 376.489 688.947C356.675 718.272 339.542 750.87 325.562 780.307C311.581 809.745 300.765 835.995 293.568 852.65C289.985 860.943 287.269 866.929 285.506 869.696C285.067 870.385 284.645 870.944 284.244 871.282C284.04 871.454 283.802 871.604 283.545 871.649C283.27 871.697 283.032 871.615 282.85 871.437C282.529 871.124 282.398 870.529 282.338 869.874C282.283 869.264 282.283 868.478 282.331 867.519L240.989 851.861C239.283 865.761 236.363 873.959 233.081 879.242C229.722 884.647 226.018 886.93 223.143 889.079C221.698 890.159 220.49 891.182 219.561 892.527C218.644 893.855 217.962 895.552 217.66 898.032C217.048 903.052 218.009 911.124 221.595 925.355C222.398 928.538 225.093 933.793 229.282 940.645C233.456 947.474 239.075 955.83 245.67 965.198C258.859 983.932 275.937 1006.69 293.14 1029.33C310.34 1051.97 327.668 1074.5 341.347 1092.76C348.187 1101.89 354.117 1109.96 358.666 1116.45C363.179 1122.88 366.355 1127.79 367.7 1130.64C430.825 1215.54 525.143 1246.03 617.423 1210.17L617.424 1210.17Z" fill="#FF1C9D" stroke="url(#paint22_linear_1011_520)" stroke-width="1.18963"/>
<g filter="url(#filter9_f_1011_520)">
<path d="M264.148 840.204C257.422 897.77 230.322 857.947 244.659 914.845C251.266 941.065 380.352 1097.92 390.824 1120.28C454.045 1205.33 548.562 1235.93 641.091 1199.98C659.888 1192.72 677.766 1182.6 695.518 1170.93C605.629 1230.16 463.623 1150.91 411.083 1065.33C336.638 944.265 288.576 800.381 386.344 639.098C287.299 704.656 304.28 892.546 306.486 856.238L264.148 840.204Z" fill="#FF1C9D"/>
<path d="M641.013 1199.38C653.888 1194.41 666.334 1188.09 678.611 1180.84C636.397 1199.73 585.854 1193.33 539.023 1173.03C485.653 1149.9 436.944 1108.64 410.619 1065.76C373.381 1005.2 342.709 938.888 333.594 867.503C324.554 796.712 336.716 720.947 384.647 640.915C336.772 673.857 316.732 735.936 308.982 785.86C305.06 811.126 304.296 833.213 304.65 846.707C304.737 850.035 304.892 852.825 305.082 855.005L306.74 855.632L307.055 855.751L307.03 856.161C306.96 857.305 306.876 858.24 306.779 858.972C306.684 859.686 306.571 860.259 306.427 860.651C306.361 860.829 306.248 861.09 306.043 861.277C305.924 861.385 305.774 861.468 305.609 861.483C305.45 861.497 305.327 861.443 305.24 861.383C305.082 861.272 304.978 861.088 304.908 860.932C304.831 860.762 304.762 860.55 304.698 860.31C304.466 859.451 304.245 857.997 304.056 856.022L264.579 841.072C262.873 854.971 259.953 863.169 256.671 868.452C253.312 873.857 249.608 876.14 246.733 878.289C245.287 879.369 244.08 880.392 243.151 881.737C242.234 883.065 241.552 884.762 241.25 887.242C240.638 892.262 241.599 900.334 245.185 914.565C245.987 917.748 248.683 923.003 252.871 929.855C257.046 936.684 262.665 945.04 269.26 954.408C282.449 973.142 299.527 995.9 316.73 1018.54C333.93 1041.18 351.258 1063.71 364.937 1081.97C371.776 1091.1 377.707 1099.17 382.256 1105.66C386.769 1112.09 389.945 1117 391.29 1119.85C454.414 1204.75 548.733 1235.24 641.013 1199.38L641.013 1199.38ZM305.7 859.02C305.78 858.422 305.851 857.661 305.914 856.726L305.224 856.464C305.358 857.703 305.504 858.67 305.652 859.346C305.668 859.245 305.685 859.136 305.7 859.02Z" stroke="url(#paint23_linear_1011_520)" stroke-width="1.18963"/>
</g>
<g filter="url(#filter10_f_1011_520)">
<path d="M264.148 840.204C257.422 897.77 230.322 857.947 244.659 914.845C251.266 941.065 380.352 1097.92 390.824 1120.28C454.045 1205.33 548.562 1235.93 641.091 1199.98C659.888 1192.72 677.766 1182.6 695.518 1170.93C605.629 1230.16 463.623 1150.91 411.083 1065.33C336.638 944.265 288.576 800.381 386.344 639.098C287.299 704.656 304.28 892.546 306.486 856.238L264.148 840.204Z" fill="#FF1C9D"/>
<path d="M641.013 1199.38C653.888 1194.41 666.334 1188.09 678.611 1180.84C636.397 1199.73 585.854 1193.33 539.023 1173.03C485.653 1149.9 436.944 1108.64 410.619 1065.76C373.381 1005.2 342.709 938.888 333.594 867.503C324.554 796.712 336.716 720.947 384.647 640.915C336.772 673.857 316.732 735.936 308.982 785.86C305.06 811.126 304.296 833.213 304.65 846.707C304.737 850.035 304.892 852.825 305.082 855.005L306.74 855.632L307.055 855.751L307.03 856.161C306.96 857.305 306.876 858.24 306.779 858.972C306.684 859.686 306.571 860.259 306.427 860.651C306.361 860.829 306.248 861.09 306.043 861.277C305.924 861.385 305.774 861.468 305.609 861.483C305.45 861.497 305.327 861.443 305.24 861.383C305.082 861.272 304.978 861.088 304.908 860.932C304.831 860.762 304.762 860.55 304.698 860.31C304.466 859.451 304.245 857.997 304.056 856.022L264.579 841.072C262.873 854.971 259.953 863.169 256.671 868.452C253.312 873.857 249.608 876.14 246.733 878.289C245.287 879.369 244.08 880.392 243.151 881.737C242.234 883.065 241.552 884.762 241.25 887.242C240.638 892.262 241.599 900.334 245.185 914.565C245.987 917.748 248.683 923.003 252.871 929.855C257.046 936.684 262.665 945.04 269.26 954.408C282.449 973.142 299.527 995.9 316.73 1018.54C333.93 1041.18 351.258 1063.71 364.937 1081.97C371.776 1091.1 377.707 1099.17 382.256 1105.66C386.769 1112.09 389.945 1117 391.29 1119.85C454.414 1204.75 548.733 1235.24 641.013 1199.38L641.013 1199.38ZM305.7 859.02C305.78 858.422 305.851 857.661 305.914 856.726L305.224 856.464C305.358 857.703 305.504 858.67 305.652 859.346C305.668 859.245 305.685 859.136 305.7 859.02Z" stroke="url(#paint24_linear_1011_520)" stroke-width="1.18963"/>
</g>
<g filter="url(#filter11_f_1011_520)">
<path d="M264.148 840.204C257.422 897.77 230.322 857.947 244.659 914.845C251.266 941.065 380.352 1097.92 390.824 1120.28C454.045 1205.33 548.562 1235.93 641.091 1199.98C659.888 1192.72 677.766 1182.6 695.518 1170.93C605.629 1230.16 463.623 1150.91 411.083 1065.33C336.638 944.265 288.576 800.381 386.344 639.098C287.299 704.656 304.28 892.546 306.486 856.238L264.148 840.204Z" fill="#FF1C9D"/>
<path d="M641.013 1199.38C653.888 1194.41 666.334 1188.09 678.611 1180.84C636.397 1199.73 585.854 1193.33 539.023 1173.03C485.653 1149.9 436.944 1108.64 410.619 1065.76C373.381 1005.2 342.709 938.888 333.594 867.503C324.554 796.712 336.716 720.947 384.647 640.915C336.772 673.857 316.732 735.936 308.982 785.86C305.06 811.126 304.296 833.213 304.65 846.707C304.737 850.035 304.892 852.825 305.082 855.005L306.74 855.632L307.055 855.751L307.03 856.161C306.96 857.305 306.876 858.24 306.779 858.972C306.684 859.686 306.571 860.259 306.427 860.651C306.361 860.829 306.248 861.09 306.043 861.277C305.924 861.385 305.774 861.468 305.609 861.483C305.45 861.497 305.327 861.443 305.24 861.383C305.082 861.272 304.978 861.088 304.908 860.932C304.831 860.762 304.762 860.55 304.698 860.31C304.466 859.451 304.245 857.997 304.056 856.022L264.579 841.072C262.873 854.971 259.953 863.169 256.671 868.452C253.312 873.857 249.608 876.14 246.733 878.289C245.287 879.369 244.08 880.392 243.151 881.737C242.234 883.065 241.552 884.762 241.25 887.242C240.638 892.262 241.599 900.334 245.185 914.565C245.987 917.748 248.683 923.003 252.871 929.855C257.046 936.684 262.665 945.04 269.26 954.408C282.449 973.142 299.527 995.9 316.73 1018.54C333.93 1041.18 351.258 1063.71 364.937 1081.97C371.776 1091.1 377.707 1099.17 382.256 1105.66C386.769 1112.09 389.945 1117 391.29 1119.85C454.414 1204.75 548.733 1235.24 641.013 1199.38L641.013 1199.38ZM305.7 859.02C305.78 858.422 305.851 857.661 305.914 856.726L305.224 856.464C305.358 857.703 305.504 858.67 305.652 859.346C305.668 859.245 305.685 859.136 305.7 859.02Z" stroke="url(#paint25_linear_1011_520)" stroke-width="1.18963"/>
</g>
<g filter="url(#filter12_f_1011_520)">
<path d="M264.148 840.204C257.422 897.77 230.322 857.947 244.659 914.845C251.266 941.065 380.352 1097.92 390.824 1120.28C454.045 1205.33 548.562 1235.93 641.091 1199.98C659.888 1192.72 677.766 1182.6 695.518 1170.93C605.629 1230.16 460.181 1177.39 407.641 1091.81C333.195 970.745 288.576 800.381 386.344 639.098C287.299 704.656 304.28 892.546 306.486 856.238L264.148 840.204Z" fill="#FF1C9D"/>
<path d="M641.013 1199.38C653.094 1194.71 664.796 1188.86 676.336 1182.17C634.421 1201.3 584.106 1200.52 537.344 1186.29C483.532 1169.91 434.292 1135.68 407.798 1093.24L407.177 1092.24C333.027 971.656 288.311 801.95 384.648 640.914C336.773 673.856 316.733 735.935 308.982 785.86C305.06 811.126 304.296 833.213 304.65 846.707C304.737 850.035 304.892 852.825 305.082 855.005L306.74 855.632L307.055 855.751L307.03 856.161C306.96 857.305 306.876 858.24 306.779 858.972C306.684 859.686 306.571 860.259 306.427 860.651C306.361 860.829 306.248 861.09 306.043 861.277C305.924 861.385 305.774 861.468 305.609 861.483C305.45 861.497 305.327 861.443 305.24 861.383C305.082 861.272 304.978 861.088 304.908 860.932C304.831 860.762 304.762 860.55 304.698 860.31C304.466 859.451 304.245 857.997 304.056 856.022L264.579 841.072C262.873 854.971 259.953 863.169 256.671 868.452C253.312 873.857 249.608 876.14 246.733 878.289C245.287 879.369 244.08 880.392 243.151 881.737C242.234 883.065 241.552 884.762 241.25 887.242C240.638 892.262 241.599 900.334 245.185 914.565C245.987 917.748 248.683 923.003 252.871 929.855C257.046 936.684 262.665 945.04 269.26 954.408C282.449 973.142 299.527 995.9 316.73 1018.54C333.93 1041.18 351.258 1063.71 364.937 1081.97C371.776 1091.1 377.707 1099.17 382.256 1105.66C386.769 1112.09 389.945 1117 391.29 1119.85C454.414 1204.75 548.733 1235.24 641.013 1199.38L641.013 1199.38ZM305.7 859.02C305.78 858.422 305.851 857.661 305.914 856.726L305.224 856.464C305.358 857.703 305.504 858.67 305.652 859.346C305.668 859.245 305.685 859.136 305.7 859.02Z" stroke="url(#paint26_linear_1011_520)" stroke-width="1.18963"/>
</g>
<g filter="url(#filter13_f_1011_520)">
<path d="M264.149 840.204C257.423 897.77 230.322 857.947 244.659 914.845C251.266 941.065 380.352 1097.92 390.825 1120.28C454.045 1205.33 548.563 1235.93 641.091 1199.98C659.889 1192.72 684.469 1184.47 702.221 1172.8C612.332 1232.03 462.161 1182.5 409.621 1096.92C335.176 975.856 288.576 800.382 386.344 639.099C287.3 704.656 304.28 892.546 306.486 856.238L264.149 840.204Z" fill="#FF1C9D"/>
<path d="M657.181 1193.26C620.79 1202.85 580.095 1200.66 541.694 1189.78C486.28 1174.09 435.501 1140.26 409.157 1097.35C335.01 976.771 288.326 801.997 384.648 640.914C336.773 673.856 316.733 735.936 308.982 785.861C305.06 811.127 304.297 833.213 304.65 846.707C304.737 850.035 304.892 852.825 305.082 855.004L306.74 855.631L307.055 855.75L307.03 856.16C306.961 857.305 306.876 858.24 306.779 858.972C306.684 859.686 306.571 860.26 306.427 860.651C306.362 860.829 306.248 861.09 306.044 861.277C305.925 861.385 305.775 861.469 305.609 861.484C305.451 861.497 305.327 861.444 305.241 861.383C305.082 861.272 304.979 861.087 304.908 860.932C304.832 860.761 304.762 860.55 304.698 860.311C304.467 859.451 304.245 857.997 304.056 856.022L264.579 841.072C262.874 854.971 259.953 863.17 256.671 868.453C253.312 873.858 249.609 876.141 246.733 878.29C245.288 879.37 244.08 880.392 243.151 881.737C242.234 883.064 241.552 884.762 241.25 887.241C240.638 892.262 241.599 900.333 245.185 914.565C245.987 917.748 248.683 923.003 252.872 929.855C257.046 936.685 262.665 945.04 269.26 954.408C282.449 973.142 299.527 995.901 316.73 1018.54C333.931 1041.18 351.258 1063.71 364.937 1081.97C371.777 1091.1 377.708 1099.17 382.257 1105.66C386.77 1112.09 389.947 1117.01 391.291 1119.86C454.416 1204.75 548.734 1235.24 641.013 1199.38L641.014 1199.38C646.076 1197.42 651.546 1195.4 657.181 1193.26ZM305.701 859.02C305.78 858.422 305.852 857.66 305.914 856.726L305.224 856.464C305.358 857.702 305.504 858.67 305.652 859.346C305.668 859.244 305.685 859.136 305.701 859.02Z" stroke="url(#paint27_linear_1011_520)" stroke-width="1.18963"/>
</g>
<g filter="url(#filter14_f_1011_520)">
<path d="M240.558 850.994C233.832 908.56 206.732 868.737 221.069 925.635C227.676 951.855 362.523 1098.6 372.995 1120.97C436.216 1206.01 524.972 1246.72 617.501 1210.77C636.299 1203.51 654.176 1193.39 671.928 1181.72C582.039 1240.95 476.805 1169.43 424.266 1083.85C349.82 962.784 306.392 798.824 404.16 637.541C305.116 703.098 280.69 903.336 282.896 867.028L240.558 850.994Z" fill="#FF1C9D"/>
<path d="M617.424 1210.17C629.522 1205.5 641.242 1199.63 652.8 1192.93C613.234 1210.77 571.758 1205.9 533.804 1187.68C489.61 1166.47 450.109 1127.13 423.801 1084.28C349.65 963.693 306.117 800.334 402.466 639.355C354.271 672.409 324.032 737.609 306.062 790.612C296.968 817.435 291.034 841.082 287.508 855.763C285.752 863.078 284.581 868.224 283.921 870.384C283.837 870.659 283.758 870.899 283.683 871.095C283.614 871.276 283.529 871.476 283.423 871.634C283.373 871.708 283.271 871.846 283.115 871.938C282.915 872.056 282.702 872.054 282.542 871.94C282.418 871.851 282.36 871.717 282.333 871.643C282.302 871.558 282.282 871.466 282.268 871.381C282.217 871.059 282.207 870.535 282.223 869.855C282.237 869.244 282.275 868.466 282.33 867.517L240.989 851.862C239.284 865.761 236.363 873.959 233.081 879.242C229.722 884.647 226.018 886.93 223.143 889.079C221.698 890.159 220.49 891.182 219.561 892.527C218.644 893.855 217.962 895.552 217.66 898.032C217.048 903.052 218.009 911.124 221.595 925.355C222.395 928.528 225.174 933.62 229.52 940.196C233.851 946.748 239.694 954.708 246.558 963.602C260.287 981.388 278.084 1002.88 296.007 1024.26C313.928 1045.64 331.976 1066.9 346.196 1084.22C353.306 1092.87 359.462 1100.55 364.17 1106.76C368.838 1112.92 372.111 1117.68 373.461 1120.54C436.612 1205.47 525.18 1246.01 617.423 1210.17L617.424 1210.17Z" stroke="url(#paint28_linear_1011_520)" stroke-width="1.18963"/>
</g>
<g filter="url(#filter15_f_1011_520)">
<path d="M251.5 850.457C244.774 908.023 217.673 868.2 232.01 925.098C238.617 951.318 373.464 1098.06 383.937 1120.43C447.157 1205.47 535.914 1246.18 628.443 1210.23C647.24 1202.97 665.117 1192.86 682.869 1181.18C592.98 1240.41 479.2 1173.44 426.66 1087.86C352.214 966.795 308.787 802.835 406.555 641.552C307.51 707.109 291.631 902.799 293.837 866.491L251.5 850.457Z" fill="#FF1C9D"/>
<path d="M628.365 1209.63C640.434 1204.97 652.127 1199.13 663.657 1192.44C623.605 1210.56 580.284 1206.67 540.487 1189.42C494.157 1169.35 452.511 1131.15 426.195 1088.29C352.044 967.704 308.511 804.344 404.86 643.365C356.728 676.385 328.597 740.453 312.738 792.325C304.713 818.576 299.845 841.652 297.122 855.901C295.766 862.998 294.932 867.965 294.515 869.971C294.462 870.226 294.413 870.443 294.369 870.616C294.33 870.771 294.283 870.945 294.224 871.079C294.208 871.117 294.181 871.173 294.143 871.232C294.112 871.282 294.033 871.396 293.901 871.482C293.731 871.591 293.538 871.61 293.385 871.523C293.265 871.454 293.209 871.345 293.188 871.297C293.143 871.198 293.129 871.09 293.122 871.037C293.114 870.969 293.109 870.892 293.106 870.814C293.087 870.262 293.149 868.991 293.269 866.98L251.93 851.325C250.225 865.224 247.304 873.422 244.022 878.705C240.664 884.11 236.96 886.393 234.085 888.542C232.639 889.622 231.431 890.645 230.502 891.99C229.586 893.318 228.904 895.015 228.602 897.495C227.99 902.515 228.951 910.587 232.537 924.818C233.336 927.991 236.115 933.083 240.462 939.659C244.793 946.211 250.635 954.171 257.5 963.065C271.228 980.851 289.025 1002.34 306.949 1023.72C324.869 1045.1 342.917 1066.37 357.137 1083.68C364.247 1092.34 370.404 1100.01 375.111 1106.22C379.78 1112.38 383.052 1117.14 384.402 1120C447.553 1204.93 536.122 1245.47 628.364 1209.63L628.365 1209.63Z" stroke="url(#paint29_linear_1011_520)" stroke-width="1.18963"/>
</g>
<g filter="url(#filter16_f_1011_520)">
<path d="M258.044 843.453C251.318 901.018 224.218 861.195 238.555 918.093C245.162 944.313 380.009 1091.06 390.481 1113.42C453.702 1198.47 542.458 1239.18 634.987 1203.22C653.784 1195.96 671.662 1185.85 689.414 1174.18C599.525 1233.41 463.375 1176.58 410.836 1090.99C336.39 969.933 292.962 805.972 390.73 644.689C291.686 710.247 298.176 895.794 300.382 859.486L258.044 843.453Z" fill="#FF1C9D"/>
<path d="M634.909 1202.63C646.984 1197.96 658.681 1192.12 670.216 1185.43C628.842 1204.27 580.589 1202.6 535.878 1187.5C483.963 1169.98 436.705 1134.32 410.372 1091.42C336.221 970.842 292.687 807.483 389.034 646.504C341.071 679.445 318.452 740.974 308.116 790.321C302.884 815.296 300.812 837.093 300.185 850.373C300.028 853.691 299.961 856.468 299.958 858.624L300.636 858.88L300.951 858.999L300.926 859.409C300.789 861.667 300.632 863.135 300.47 863.829C300.433 863.986 300.375 864.204 300.269 864.382C300.218 864.469 300.079 864.678 299.838 864.757C299.571 864.845 299.395 864.706 299.323 864.625C299.25 864.543 299.208 864.446 299.184 864.381C299.157 864.309 299.136 864.229 299.118 864.15C299.082 863.992 299.053 863.794 299.027 863.568C298.938 862.777 298.881 861.44 298.871 859.618L258.475 844.32C256.769 858.219 253.849 866.418 250.567 871.7C247.208 877.106 243.504 879.389 240.629 881.537C239.183 882.617 237.976 883.641 237.047 884.986C236.13 886.313 235.448 888.01 235.146 890.49C234.534 895.511 235.495 903.582 239.081 917.814C239.881 920.987 242.659 926.078 247.006 932.654C251.337 939.206 257.18 947.166 264.044 956.06C277.773 973.846 295.57 995.34 313.493 1016.72C331.414 1038.1 349.462 1059.36 363.681 1076.67C370.791 1085.33 376.948 1093.01 381.656 1099.22C386.324 1105.38 389.597 1110.14 390.947 1112.99C454.098 1197.92 542.666 1238.47 634.909 1202.63L634.909 1202.63Z" stroke="url(#paint30_linear_1011_520)" stroke-width="1.18963"/>
</g>
<g filter="url(#filter17_f_1011_520)">
<path d="M258.044 843.452C251.318 901.018 224.218 861.194 238.555 918.093C245.162 944.313 372.797 1077.13 383.269 1099.49C446.49 1184.54 558.998 1238.37 651.527 1202.42C670.324 1195.16 671.662 1185.85 689.414 1174.18C599.525 1233.41 477 1222.16 424.46 1136.57C350.015 1015.51 247.099 932.518 344.867 771.235C245.822 836.792 298.176 895.794 300.382 859.485L258.044 843.452Z" fill="#FF1C9D"/>
<path d="M434.909 1152.51C431.243 1147.94 427.805 1143.11 424.617 1138L423.996 1137C405.392 1106.75 385.018 1078.88 366.416 1051.54C347.824 1024.21 331.01 997.414 319.581 969.34C308.15 941.261 302.096 911.882 305.046 879.391C307.945 847.457 319.537 812.574 343.185 773.028C295.689 805.047 284.408 835.188 285.184 853.028L300.636 858.879L300.951 858.998L300.926 859.408C300.646 864.01 299.566 867.27 297.952 869.201C296.288 871.191 294.192 871.619 292.214 870.838C288.362 869.316 284.695 863.185 284.131 854.035L258.475 844.319C256.769 858.219 253.849 866.418 250.567 871.7C247.208 877.105 243.504 879.388 240.629 881.536C239.183 882.617 237.976 883.64 237.047 884.985C236.13 886.312 235.448 888.009 235.146 890.489C234.534 895.51 235.495 903.581 239.081 917.813C239.881 920.985 242.547 925.86 246.695 932.052C250.828 938.222 256.387 945.638 262.914 953.878C275.965 970.358 292.861 990.11 309.882 1009.75C326.901 1029.38 344.048 1048.91 357.592 1064.91C364.364 1072.92 370.24 1080.05 374.752 1085.88C379.225 1091.66 382.385 1096.21 383.735 1099.06C398.42 1118.81 415.769 1136.87 434.909 1152.51ZM292.733 869.628C294.426 870.297 296.008 869.889 297.243 868.413C298.487 866.924 299.499 864.212 299.808 859.972L285.274 854.468C285.973 862.935 289.425 868.322 292.733 869.628ZM544.951 1209.27C531.86 1206.33 518.868 1202.17 506.143 1196.93C484.793 1188.14 464.18 1176.31 445.083 1162.1C470.968 1188.74 505.62 1204.32 543.09 1209.05C543.71 1209.13 544.33 1209.2 544.951 1209.27ZM651.449 1201.82C660.752 1198.22 665.713 1194.14 670.566 1189.49C673.331 1186.85 676.082 1184 679.573 1180.96C644.65 1201.44 605.606 1211.81 567.989 1211.86C596.378 1215.07 624.756 1212.19 651.448 1201.82L651.449 1201.82Z" stroke="url(#paint31_linear_1011_520)" stroke-width="1.18963"/>
</g>
<g filter="url(#filter18_f_1011_520)">
<path d="M258.044 843.452C251.318 901.018 224.218 861.194 238.555 918.093C245.162 944.313 392.903 1093.73 403.376 1116.09C466.596 1201.13 558.998 1238.37 651.527 1202.42C670.324 1195.16 671.662 1185.85 689.414 1174.18C599.525 1233.41 486.933 1198.38 434.393 1112.79C359.947 991.731 247.099 932.518 344.867 771.235C245.822 836.792 298.176 895.794 300.382 859.485L258.044 843.452Z" fill="#FF1C9D"/>
<path d="M651.449 1201.82C660.752 1198.22 665.713 1194.14 670.566 1189.49C673.393 1186.79 676.206 1183.87 679.81 1180.75C637.238 1205.21 590.428 1209.62 547.684 1198.41C502.353 1186.52 461.555 1157.06 435.175 1115.22L433.928 1113.22C415.334 1082.98 394.34 1056.61 374.814 1031.5C355.297 1006.41 337.238 982.587 324.565 957.49C311.888 932.385 304.581 905.972 306.597 875.694C308.578 845.936 319.561 812.519 343.184 773.029C295.689 805.047 284.408 835.188 285.184 853.028L300.636 858.879L300.951 858.998L300.926 859.408C300.646 864.01 299.566 867.27 297.952 869.201C296.288 871.191 294.192 871.619 292.214 870.838C288.362 869.316 284.695 863.185 284.131 854.035L258.475 844.319C256.769 858.219 253.849 866.418 250.567 871.7C247.208 877.105 243.504 879.388 240.629 881.536C239.183 882.617 237.976 883.64 237.047 884.985C236.13 886.312 235.448 888.009 235.146 890.489C234.534 895.51 235.495 903.581 239.081 917.813C239.475 919.376 240.41 921.446 241.852 923.976C243.289 926.497 245.211 929.444 247.552 932.756C252.235 939.381 258.581 947.445 266.049 956.464C280.986 974.5 300.395 996.327 319.93 1018.04C339.463 1039.75 359.123 1061.35 374.552 1078.91C382.267 1087.7 388.927 1095.47 393.988 1101.76C399.005 1107.99 402.484 1112.79 403.841 1115.66C466.981 1200.57 559.191 1237.67 651.448 1201.82L651.449 1201.82ZM292.733 869.628C294.426 870.297 296.008 869.889 297.243 868.413C298.487 866.924 299.499 864.212 299.808 859.972L285.274 854.468C285.973 862.935 289.425 868.322 292.733 869.628Z" stroke="url(#paint32_linear_1011_520)" stroke-width="1.18963"/>
</g>
</g>
</g>
</g>
<defs>
<filter id="filter0_f_1011_520" x="198.437" y="200.351" width="630.673" height="1114.35" filterUnits="userSpaceOnUse" color-interpolation-filters="sRGB">
<feFlood flood-opacity="0" result="BackgroundImageFix"/>
<feBlend mode="normal" in="SourceGraphic" in2="BackgroundImageFix" result="shape"/>
<feGaussianBlur stdDeviation="7.26216" result="effect1_foregroundBlur_1011_520"/>
</filter>
<filter id="filter1_f_1011_520" x="178.345" y="162.599" width="697.997" height="1181.79" filterUnits="userSpaceOnUse" color-interpolation-filters="sRGB">
<feFlood flood-opacity="0" result="BackgroundImageFix"/>
<feBlend mode="normal" in="SourceGraphic" in2="BackgroundImageFix" result="shape"/>
<feGaussianBlur stdDeviation="21.7865" result="effect1_foregroundBlur_1011_520"/>
</filter>
<filter id="filter2_f_1011_520" x="158.979" y="143.233" width="736.728" height="1220.52" filterUnits="userSpaceOnUse" color-interpolation-filters="sRGB">
<feFlood flood-opacity="0" result="BackgroundImageFix"/>
<feBlend mode="normal" in="SourceGraphic" in2="BackgroundImageFix" result="shape"/>
<feGaussianBlur stdDeviation="31.4693" result="effect1_foregroundBlur_1011_520"/>
</filter>
<filter id="filter3_f_1011_520" x="158.979" y="143.233" width="736.728" height="1220.52" filterUnits="userSpaceOnUse" color-interpolation-filters="sRGB">
<feFlood flood-opacity="0" result="BackgroundImageFix"/>
<feBlend mode="normal" in="SourceGraphic" in2="BackgroundImageFix" result="shape"/>
<feGaussianBlur stdDeviation="31.4693" result="effect1_foregroundBlur_1011_520"/>
</filter>
<filter id="filter4_f_1011_520" x="118.136" y="56.087" width="864.717" height="1394.5" filterUnits="userSpaceOnUse" color-interpolation-filters="sRGB">
<feFlood flood-opacity="0" result="BackgroundImageFix"/>
<feBlend mode="normal" in="SourceGraphic" in2="BackgroundImageFix" result="shape"/>
<feGaussianBlur stdDeviation="75.0423" result="effect1_foregroundBlur_1011_520"/>
</filter>
<filter id="filter5_f_1011_520" x="177.77" y="83.7883" width="773.192" height="1356.25" filterUnits="userSpaceOnUse" color-interpolation-filters="sRGB">
<feFlood flood-opacity="0" result="BackgroundImageFix"/>
<feBlend mode="normal" in="SourceGraphic" in2="BackgroundImageFix" result="shape"/>
<feGaussianBlur stdDeviation="45.9937" result="effect1_foregroundBlur_1011_520"/>
</filter>
<filter id="filter6_f_1011_520" x="71.2589" y="-22.7233" width="986.216" height="1569.28" filterUnits="userSpaceOnUse" color-interpolation-filters="sRGB">
<feFlood flood-opacity="0" result="BackgroundImageFix"/>
<feBlend mode="normal" in="SourceGraphic" in2="BackgroundImageFix" result="shape"/>
<feGaussianBlur stdDeviation="99.2495" result="effect1_foregroundBlur_1011_520"/>
</filter>
<filter id="filter7_f_1011_520" x="-25.5699" y="-119.552" width="1179.87" height="1762.94" filterUnits="userSpaceOnUse" color-interpolation-filters="sRGB">
<feFlood flood-opacity="0" result="BackgroundImageFix"/>
<feBlend mode="normal" in="SourceGraphic" in2="BackgroundImageFix" result="shape"/>
<feGaussianBlur stdDeviation="147.664" result="effect1_foregroundBlur_1011_520"/>
</filter>
<filter id="filter8_f_1011_520" x="248.249" y="651.56" width="459.92" height="409.768" filterUnits="userSpaceOnUse" color-interpolation-filters="sRGB">
<feFlood flood-opacity="0" result="BackgroundImageFix"/>
<feBlend mode="normal" in="SourceGraphic" in2="BackgroundImageFix" result="shape"/>
<feGaussianBlur stdDeviation="2.97408" result="effect1_foregroundBlur_1011_520"/>
</filter>
<filter id="filter9_f_1011_520" x="234.585" y="633.15" width="466.881" height="587.589" filterUnits="userSpaceOnUse" color-interpolation-filters="sRGB">
<feFlood flood-opacity="0" result="BackgroundImageFix"/>
<feBlend mode="normal" in="SourceGraphic" in2="BackgroundImageFix" result="shape"/>
<feGaussianBlur stdDeviation="2.97408" result="effect1_foregroundBlur_1011_520"/>
</filter>
<filter id="filter10_f_1011_520" x="177.483" y="576.048" width="581.085" height="701.794" filterUnits="userSpaceOnUse" color-interpolation-filters="sRGB">
<feFlood flood-opacity="0" result="BackgroundImageFix"/>
<feBlend mode="normal" in="SourceGraphic" in2="BackgroundImageFix" result="shape"/>
<feGaussianBlur stdDeviation="31.5253" result="effect1_foregroundBlur_1011_520"/>
</filter>
<filter id="filter11_f_1011_520" x="206.034" y="604.599" width="523.983" height="644.692" filterUnits="userSpaceOnUse" color-interpolation-filters="sRGB">
<feFlood flood-opacity="0" result="BackgroundImageFix"/>
<feBlend mode="normal" in="SourceGraphic" in2="BackgroundImageFix" result="shape"/>
<feGaussianBlur stdDeviation="17.2497" result="effect1_foregroundBlur_1011_520"/>
</filter>
<filter id="filter12_f_1011_520" x="206.034" y="604.599" width="523.983" height="644.692" filterUnits="userSpaceOnUse" color-interpolation-filters="sRGB">
<feFlood flood-opacity="0" result="BackgroundImageFix"/>
<feBlend mode="normal" in="SourceGraphic" in2="BackgroundImageFix" result="shape"/>
<feGaussianBlur stdDeviation="17.2497" result="effect1_foregroundBlur_1011_520"/>
</filter>
<filter id="filter13_f_1011_520" x="206.034" y="604.599" width="530.686" height="644.691" filterUnits="userSpaceOnUse" color-interpolation-filters="sRGB">
<feFlood flood-opacity="0" result="BackgroundImageFix"/>
<feBlend mode="normal" in="SourceGraphic" in2="BackgroundImageFix" result="shape"/>
<feGaussianBlur stdDeviation="17.2497" result="effect1_foregroundBlur_1011_520"/>
</filter>
<filter id="filter14_f_1011_520" x="201.478" y="622.076" width="485.915" height="617.253" filterUnits="userSpaceOnUse" color-interpolation-filters="sRGB">
<feFlood flood-opacity="0" result="BackgroundImageFix"/>
<feBlend mode="normal" in="SourceGraphic" in2="BackgroundImageFix" result="shape"/>
<feGaussianBlur stdDeviation="7.73261" result="effect1_foregroundBlur_1011_520"/>
</filter>
<filter id="filter15_f_1011_520" x="210.04" y="623.708" width="490.673" height="617.463" filterUnits="userSpaceOnUse" color-interpolation-filters="sRGB">
<feFlood flood-opacity="0" result="BackgroundImageFix"/>
<feBlend mode="normal" in="SourceGraphic" in2="BackgroundImageFix" result="shape"/>
<feGaussianBlur stdDeviation="8.92225" result="effect1_foregroundBlur_1011_520"/>
</filter>
<filter id="filter16_f_1011_520" x="224.912" y="635.172" width="474.018" height="590.667" filterUnits="userSpaceOnUse" color-interpolation-filters="sRGB">
<feFlood flood-opacity="0" result="BackgroundImageFix"/>
<feBlend mode="normal" in="SourceGraphic" in2="BackgroundImageFix" result="shape"/>
<feGaussianBlur stdDeviation="4.75853" result="effect1_foregroundBlur_1011_520"/>
</filter>
<filter id="filter17_f_1011_520" x="205.878" y="742.684" width="512.087" height="499.605" filterUnits="userSpaceOnUse" color-interpolation-filters="sRGB">
<feFlood flood-opacity="0" result="BackgroundImageFix"/>
<feBlend mode="normal" in="SourceGraphic" in2="BackgroundImageFix" result="shape"/>
<feGaussianBlur stdDeviation="14.2756" result="effect1_foregroundBlur_1011_520"/>
</filter>
<filter id="filter18_f_1011_520" x="205.878" y="742.684" width="512.087" height="501.932" filterUnits="userSpaceOnUse" color-interpolation-filters="sRGB">
<feFlood flood-opacity="0" result="BackgroundImageFix"/>
<feBlend mode="normal" in="SourceGraphic" in2="BackgroundImageFix" result="shape"/>
<feGaussianBlur stdDeviation="14.2756" result="effect1_foregroundBlur_1011_520"/>
</filter>
<linearGradient id="paint0_linear_1011_520" x1="455.042" y1="0" x2="455.042" y2="1017.3" gradientUnits="userSpaceOnUse">
<stop stop-color="#C4C4C4" stop-opacity="0"/>
<stop offset="0.380208" stop-color="#C4C4C4"/>
<stop offset="0.578125" stop-color="#C4C4C4"/>
<stop offset="1" stop-color="#C4C4C4" stop-opacity="0"/>
</linearGradient>
<linearGradient id="paint1_linear_1011_520" x1="455.042" y1="0" x2="455.042" y2="1017.3" gradientUnits="userSpaceOnUse">
<stop stop-color="#EE6067"/>
<stop offset="0.989583" stop-color="#1D24A2"/>
</linearGradient>
<linearGradient id="paint2_linear_1011_520" x1="375.932" y1="325.153" x2="786.022" y2="1240.8" gradientUnits="userSpaceOnUse">
<stop stop-color="#7765FF"/>
<stop offset="1" stop-color="#FF229F"/>
</linearGradient>
<linearGradient id="paint3_linear_1011_520" x1="375.932" y1="325.153" x2="786.022" y2="1240.8" gradientUnits="userSpaceOnUse">
<stop stop-color="#EE6067"/>
<stop offset="0.989583" stop-color="#1D24A2"/>
</linearGradient>
<linearGradient id="paint4_linear_1011_520" x1="384.264" y1="321.421" x2="794.354" y2="1237.07" gradientUnits="userSpaceOnUse">
<stop stop-color="#7765FF"/>
<stop offset="1" stop-color="#FF229F"/>
</linearGradient>
<linearGradient id="paint5_linear_1011_520" x1="384.264" y1="321.421" x2="794.354" y2="1237.07" gradientUnits="userSpaceOnUse">
<stop stop-color="#EE6067"/>
<stop offset="0.989583" stop-color="#1D24A2"/>
</linearGradient>
<linearGradient id="paint6_linear_1011_520" x1="399.556" y1="315.749" x2="812.719" y2="1238.26" gradientUnits="userSpaceOnUse">
<stop stop-color="#7765FF"/>
<stop offset="1" stop-color="#FF229F"/>
</linearGradient>
<linearGradient id="paint7_linear_1011_520" x1="399.556" y1="315.749" x2="812.719" y2="1238.26" gradientUnits="userSpaceOnUse">
<stop stop-color="#EE6067"/>
<stop offset="0.989583" stop-color="#1D24A2"/>
</linearGradient>
<linearGradient id="paint8_linear_1011_520" x1="399.556" y1="315.749" x2="812.719" y2="1238.26" gradientUnits="userSpaceOnUse">
<stop stop-color="#7765FF"/>
<stop offset="1" stop-color="#FF229F"/>
</linearGradient>
<linearGradient id="paint9_linear_1011_520" x1="399.556" y1="315.749" x2="812.719" y2="1238.26" gradientUnits="userSpaceOnUse">
<stop stop-color="#EE6067"/>
<stop offset="0.989583" stop-color="#1D24A2"/>
</linearGradient>
<linearGradient id="paint10_linear_1011_520" x1="399.556" y1="315.749" x2="812.719" y2="1238.26" gradientUnits="userSpaceOnUse">
<stop stop-color="#7765FF"/>
<stop offset="1" stop-color="#FF229F"/>
</linearGradient>
<linearGradient id="paint11_linear_1011_520" x1="399.556" y1="315.749" x2="812.719" y2="1238.26" gradientUnits="userSpaceOnUse">
<stop stop-color="#EE6067"/>
<stop offset="0.989583" stop-color="#1D24A2"/>
</linearGradient>
<linearGradient id="paint12_linear_1011_520" x1="422.469" y1="305.487" x2="835.632" y2="1227.99" gradientUnits="userSpaceOnUse">
<stop stop-color="#7765FF"/>
<stop offset="1" stop-color="#FF229F"/>
</linearGradient>
<linearGradient id="paint13_linear_1011_520" x1="422.469" y1="305.487" x2="835.632" y2="1227.99" gradientUnits="userSpaceOnUse">
<stop stop-color="#EE6067"/>
<stop offset="0.989583" stop-color="#1D24A2"/>
</linearGradient>
<linearGradient id="paint14_linear_1011_520" x1="427.395" y1="257.966" x2="873.488" y2="1254" gradientUnits="userSpaceOnUse">
<stop stop-color="#7765FF"/>
<stop offset="1" stop-color="#FF229F"/>
</linearGradient>
<linearGradient id="paint15_linear_1011_520" x1="427.395" y1="257.966" x2="873.488" y2="1254" gradientUnits="userSpaceOnUse">
<stop stop-color="#EE6067"/>
<stop offset="0.989583" stop-color="#1D24A2"/>
</linearGradient>
<linearGradient id="paint16_linear_1011_520" x1="427.395" y1="257.966" x2="873.488" y2="1254" gradientUnits="userSpaceOnUse">
<stop stop-color="#7765FF"/>
<stop offset="1" stop-color="#FF229F"/>
</linearGradient>
<linearGradient id="paint17_linear_1011_520" x1="427.395" y1="257.966" x2="873.488" y2="1254" gradientUnits="userSpaceOnUse">
<stop stop-color="#EE6067"/>
<stop offset="0.989583" stop-color="#1D24A2"/>
</linearGradient>
<linearGradient id="paint18_linear_1011_520" x1="427.395" y1="257.966" x2="873.488" y2="1254" gradientUnits="userSpaceOnUse">
<stop stop-color="#7765FF"/>
<stop offset="1" stop-color="#FF229F"/>
</linearGradient>
<linearGradient id="paint19_linear_1011_520" x1="427.395" y1="257.966" x2="873.488" y2="1254" gradientUnits="userSpaceOnUse">
<stop stop-color="#EE6067"/>
<stop offset="0.989583" stop-color="#1D24A2"/>
</linearGradient>
<linearGradient id="paint20_linear_1011_520" x1="407.785" y1="727.6" x2="745.421" y2="898.328" gradientUnits="userSpaceOnUse">
<stop stop-color="#C4C4C4" stop-opacity="0"/>
<stop offset="0.565737" stop-color="#C4C4C4"/>
<stop offset="1" stop-color="#C4C4C4" stop-opacity="0"/>
</linearGradient>
<linearGradient id="paint21_linear_1011_520" x1="642.118" y1="1050.49" x2="458.912" y2="579.085" gradientUnits="userSpaceOnUse">
<stop stop-color="#EE6067"/>
<stop offset="0.989583" stop-color="#1D24A2"/>
</linearGradient>
<linearGradient id="paint22_linear_1011_520" x1="502.026" y1="1274.04" x2="216.476" y2="737.411" gradientUnits="userSpaceOnUse">
<stop stop-color="#EE6067"/>
<stop offset="0.989583" stop-color="#1D24A2"/>
</linearGradient>
<linearGradient id="paint23_linear_1011_520" x1="525.615" y1="1263.25" x2="236.049" y2="719.073" gradientUnits="userSpaceOnUse">
<stop stop-color="#EE6067"/>
<stop offset="0.989583" stop-color="#1D24A2"/>
</linearGradient>
<linearGradient id="paint24_linear_1011_520" x1="525.615" y1="1263.25" x2="236.049" y2="719.073" gradientUnits="userSpaceOnUse">
<stop stop-color="#EE6067"/>
<stop offset="0.989583" stop-color="#1D24A2"/>
</linearGradient>
<linearGradient id="paint25_linear_1011_520" x1="525.615" y1="1263.25" x2="236.049" y2="719.073" gradientUnits="userSpaceOnUse">
<stop stop-color="#EE6067"/>
<stop offset="0.989583" stop-color="#1D24A2"/>
</linearGradient>
<linearGradient id="paint26_linear_1011_520" x1="525.615" y1="1263.25" x2="236.049" y2="719.073" gradientUnits="userSpaceOnUse">
<stop stop-color="#EE6067"/>
<stop offset="0.989583" stop-color="#1D24A2"/>
</linearGradient>
<linearGradient id="paint27_linear_1011_520" x1="529.302" y1="1265.52" x2="237.983" y2="718.044" gradientUnits="userSpaceOnUse">
<stop stop-color="#EE6067"/>
<stop offset="0.989583" stop-color="#1D24A2"/>
</linearGradient>
<linearGradient id="paint28_linear_1011_520" x1="502.026" y1="1274.04" x2="216.476" y2="737.411" gradientUnits="userSpaceOnUse">
<stop stop-color="#EE6067"/>
<stop offset="0.989583" stop-color="#1D24A2"/>
</linearGradient>
<linearGradient id="paint29_linear_1011_520" x1="512.967" y1="1273.51" x2="227.417" y2="736.874" gradientUnits="userSpaceOnUse">
<stop stop-color="#EE6067"/>
<stop offset="0.989583" stop-color="#1D24A2"/>
</linearGradient>
<linearGradient id="paint30_linear_1011_520" x1="519.511" y1="1266.5" x2="233.231" y2="728.497" gradientUnits="userSpaceOnUse">
<stop stop-color="#EE6067"/>
<stop offset="0.989583" stop-color="#1D24A2"/>
</linearGradient>
<linearGradient id="paint31_linear_1011_520" x1="521" y1="1272.41" x2="274.3" y2="808.785" gradientUnits="userSpaceOnUse">
<stop stop-color="#EE6067"/>
<stop offset="0.989583" stop-color="#1D24A2"/>
</linearGradient>
<linearGradient id="paint32_linear_1011_520" x1="521" y1="1272.41" x2="274.3" y2="808.785" gradientUnits="userSpaceOnUse">
<stop stop-color="#EE6067"/>
<stop offset="0.989583" stop-color="#1D24A2"/>
</linearGradient>
</defs>
</svg>
