<svg width="26" height="28" viewBox="0 0 26 28" fill="none" xmlns="http://www.w3.org/2000/svg">
<path fill-rule="evenodd" clip-rule="evenodd" d="M5.49263 6.20265C9.60424 1.93892 16.288 1.98426 20.4248 6.28012C24.5633 10.5778 24.6052 17.5228 20.4941 21.7921C16.3829 26.0614 9.69515 26.0179 5.5566 21.7201C3.1041 19.1733 2.09135 15.6988 2.52623 12.404C2.58717 11.9423 2.99697 11.6194 3.44154 11.6826C3.88612 11.7459 4.19712 12.1715 4.13618 12.6332C3.76787 15.4235 4.62503 18.3662 6.70565 20.5269C10.2205 24.1769 15.8793 24.1978 19.345 20.5989C22.8107 16.9999 22.7906 11.1234 19.2757 7.47336C15.7627 3.82519 10.1079 3.80244 6.64168 7.39589L7.45169 7.40012C7.90042 7.40246 8.26235 7.78211 8.2601 8.2481C8.25784 8.71408 7.89225 9.08994 7.44353 9.08759L4.68585 9.0732C4.24031 9.07088 3.87968 8.69638 3.87744 8.2337L3.86358 5.36996C3.86133 4.90397 4.22326 4.52432 4.67199 4.52198C5.12071 4.51964 5.48631 4.89549 5.48856 5.36148L5.49263 6.20265ZM12.9906 8.65628C13.4393 8.65628 13.8031 9.03404 13.8031 9.50003V13.6505L16.2735 16.2159C16.5908 16.5454 16.5908 17.0796 16.2735 17.4092C15.9562 17.7387 15.4417 17.7387 15.1244 17.4092L12.1781 14.3495V9.50003C12.1781 9.03404 12.5419 8.65628 12.9906 8.65628Z" fill="url(#paint0_linear_953_9632)"/>
<defs>
<linearGradient id="paint0_linear_953_9632" x1="12.9907" y1="3.03137" x2="12.9907" y2="24.9689" gradientUnits="userSpaceOnUse">
<stop stop-color="#573592"/>
<stop offset="1" stop-color="#EE6067"/>
</linearGradient>
</defs>
</svg>
