<svg width="533" height="576" viewBox="0 0 533 576" fill="none" xmlns="http://www.w3.org/2000/svg">
<path d="M406.841 537.242C407.003 538.229 407.166 539.216 407.328 540.202C437.34 535.357 467.352 530.508 497.363 525.657C503.747 524.625 510.132 523.593 516.516 522.561C526.775 521.091 535.046 511.419 534.885 501.016C535.281 362.981 535.62 224.947 535.903 86.9133C536.139 75.7557 527.055 65.3625 515.935 64.1125C352.81 42.5568 189.674 21.0806 26.5282 -0.316274C11.7006 -2.78997 -2.68041 11.705 -0.0751169 26.5351C22.0812 185.041 44.3125 343.537 66.6188 502.022C69.1889 520.283 71.806 538.537 74.4702 556.784C75.9816 569.17 88.4886 578.714 100.729 576.966C118.733 574.802 136.731 572.593 154.724 570.337C184.563 566.597 214.388 562.732 244.2 558.741L244.03 558.75C244.361 558.743 244.691 558.736 245.021 558.729C245.021 557.729 245.021 556.729 245.021 555.729C244.691 555.722 244.361 555.715 244.03 555.708L243.861 555.717C213.906 558.424 183.965 561.257 154.038 564.215C135.992 565.999 117.951 567.828 99.9154 569.703C91.4404 570.765 83.031 564.086 82.11 555.709C79.6339 537.435 77.1108 519.168 74.5407 500.907C52.2344 342.422 29.853 183.948 7.39659 25.4835C5.57776 15.381 15.4141 5.40436 25.564 7.09423C188.753 28.1584 351.953 49.1431 515.162 70.0484C523.387 70.9332 530.177 78.6126 530.033 86.9133C530.316 224.947 530.656 362.981 531.051 501.016C531.238 509.594 524.447 517.666 515.92 518.939C509.542 520.008 503.163 521.078 496.785 522.148C466.803 527.177 436.822 532.208 406.841 537.242Z" fill="url(#paint0_linear_1002_367)"/>
<defs>
<linearGradient id="paint0_linear_1002_367" x1="-6.742" y1="321.991" x2="693.676" y2="321.991" gradientUnits="userSpaceOnUse">
<stop stop-color="#C73E2C"/>
<stop offset="1" stop-color="#8620A3"/>
</linearGradient>
</defs>
</svg>
